<svg id="Layer_1" data-name="Layer 1" xmlns="http://www.w3.org/2000/svg" viewBox="0 0 294.55 614.42"><path id="Path_38" data-name="Path 38" d="M43.1,43.1a147.33,147.33,0,0,0,0,208.3h0L99,307.3,43.1,363.2a147.29,147.29,0,1,0,208.3,0h0l-55.9-55.9,55.9-55.9a147.24,147.24,0,0,0-.5-208.3c-57.4-57.2-150.3-57.2-207.8,0M226.4,467.5a79.1,79.1,0,1,1-135-55.9l55.9-55.9,55.9,55.9a78.68,78.68,0,0,1,23.2,55.9m0-320.2a78.27,78.27,0,0,1-23.2,55.9l-55.9,55.9L91.4,203.2a79.05,79.05,0,1,1,135-55.9" transform="translate(0.03 -0.2)" style="fill:#fff;isolation:isolate"/></svg>