<?xml version="1.0" encoding="utf-8"?>
<!-- Generator: Adobe Illustrator 24.1.3, SVG Export Plug-In . SVG Version: 6.00 Build 0)  -->
<svg version="1.1" id="truck-2" xmlns="http://www.w3.org/2000/svg" xmlns:xlink="http://www.w3.org/1999/xlink" x="0px" y="0px"
	 viewBox="0 0 35.3 15.3" style="enable-background:new 0 0 35.3 15.3;" xml:space="preserve">
<g id="Group_83" transform="translate(25.856 4.111)">
	<g id="Group_82" transform="translate(0 0)">
		<path id="Path_44" d="M9,4.2L6.3,3.1L5.2,0.4C5.2,0.1,4.9,0,4.7,0H0.6C0.3,0,0,0.3,0,0.6v8.8C0,9.7,0.3,10,0.6,10h1.8V8.8H1.2V1.2
			h3.1l1,2.6C5.4,3.9,5.5,4,5.7,4.1l2.6,1v3.7H5.9V10h2.9c0.3,0,0.6-0.3,0.6-0.6V4.7C9.4,4.5,9.3,4.2,9,4.2z"/>
	</g>
</g>
<g id="Group_85" transform="translate(27.618 10.576)">
	<g id="Group_84" transform="translate(0 0)">
		<path id="Path_45" d="M2.3,0C1.1,0,0,1.1,0,2.3c0,1.3,1.1,2.3,2.3,2.3c1.3,0,2.3-1.1,2.3-2.3c0,0,0,0,0,0C4.7,1.1,3.6,0,2.3,0z
			 M2.3,3.5C1.7,3.5,1.2,3,1.2,2.3s0.5-1.2,1.2-1.2c0.7,0,1.2,0.5,1.2,1.2C3.5,3,3,3.5,2.3,3.5L2.3,3.5z"/>
	</g>
</g>
<g id="Group_87" transform="translate(19.39 10.576)">
	<g id="Group_86" transform="translate(0 0)">
		<path id="Path_46" d="M2.3,0C1.1,0,0,1.1,0,2.3c0,1.3,1.1,2.3,2.3,2.3c1.3,0,2.3-1.1,2.3-2.3c0,0,0,0,0,0C4.7,1.1,3.6,0,2.3,0z
			 M2.3,3.5C1.7,3.5,1.2,3,1.2,2.3s0.5-1.2,1.2-1.2c0.7,0,1.2,0.5,1.2,1.2C3.5,3,3,3.5,2.3,3.5L2.3,3.5z"/>
	</g>
</g>
<g id="Group_89" transform="translate(1.177 10.576)">
	<g id="Group_88" transform="translate(0 0)">
		<path id="Path_47" d="M2.3,0C1.1,0,0,1.1,0,2.3c0,1.3,1.1,2.3,2.3,2.3s2.3-1.1,2.3-2.3l0,0C4.7,1.1,3.6,0,2.3,0z M2.3,3.5
			C1.7,3.5,1.2,3,1.2,2.3c0-0.7,0.5-1.2,1.2-1.2c0.7,0,1.2,0.5,1.2,1.2C3.5,3,3,3.5,2.3,3.5L2.3,3.5z"/>
	</g>
</g>
<g id="Group_91" transform="translate(7.051 10.576)">
	<g id="Group_90" transform="translate(0 0)">
		<path id="Path_48" d="M2.3,0C1.1,0,0,1.1,0,2.3c0,1.3,1.1,2.3,2.3,2.3c1.3,0,2.3-1.1,2.3-2.3l0,0C4.7,1.1,3.6,0,2.3,0z M2.3,3.5
			C1.7,3.5,1.2,3,1.2,2.3c0-0.7,0.5-1.2,1.2-1.2c0.7,0,1.2,0.5,1.2,1.2C3.5,3,3,3.5,2.3,3.5L2.3,3.5z"/>
	</g>
</g>
<g id="Group_93" transform="translate(0 0)">
	<g id="Group_92" transform="translate(0 0)">
		<path id="Path_49" d="M24.1,0H0.6C0.3,0,0,0.3,0,0.6c0,0,0,0,0,0v10.6c0,0.3,0.3,0.6,0.6,0.6c0,0,0,0,0,0h23.5
			c0.3,0,0.6-0.3,0.6-0.6l0,0V0.6C24.7,0.3,24.4,0,24.1,0C24.1,0,24.1,0,24.1,0z M23.5,10.6H1.2V1.2h22.3L23.5,10.6z"/>
	</g>
</g>
<g id="Group_95" transform="translate(23.501 12.924)">
	<g id="Group_94" transform="translate(0 0)">
		<rect id="Rectangle_30" x="0" y="0" width="2.9" height="1.2"/>
	</g>
</g>
<g id="Group_97" transform="translate(24.093 10.576)">
	<g id="Group_96" transform="translate(0 0)">
		<rect id="Rectangle_31" x="0" y="0" width="2.3" height="1.2"/>
	</g>
</g>
<g id="Group_99" transform="translate(5.288 12.924)">
	<g id="Group_98" transform="translate(0 0)">
		<rect id="Rectangle_32" x="0" y="0" width="2.3" height="1.2"/>
	</g>
</g>
</svg>
