<?xml version="1.0" encoding="utf-8"?>
<!-- Generator: Adobe Illustrator 24.1.3, SVG Export Plug-In . SVG Version: 6.00 Build 0)  -->
<svg version="1.1" id="Layer_1" xmlns="http://www.w3.org/2000/svg" xmlns:xlink="http://www.w3.org/1999/xlink" x="0px" y="0px"
	 viewBox="0 0 33.4 37.2" style="enable-background:new 0 0 33.4 37.2;" xml:space="preserve">
<style type="text/css">
	.st0{fill:#160F10;}
</style>
<g id="order" transform="translate(0)">
	<g id="Group_15" transform="translate(2.52 20.787)">
		<g id="Group_14" transform="translate(0)">
			<path id="Path_27" class="st0" d="M0.6,0C0.3,0,0,0.3,0,0.6l0,0v2.5c0,0.3,0.3,0.6,0.6,0.6c0.3,0,0.6-0.3,0.6-0.6V0.6
				C1.3,0.3,1,0,0.6,0C0.6,0,0.6,0,0.6,0z"/>
		</g>
	</g>
	<g id="Group_17" transform="translate(5.039 22.047)">
		<g id="Group_16">
			<path id="Path_28" class="st0" d="M0.6,0C0.3,0,0,0.3,0,0.6l0,0v2.5c0,0.3,0.3,0.6,0.6,0.6c0.3,0,0.6-0.3,0.6-0.6V0.6
				C1.3,0.3,1,0,0.6,0L0.6,0z"/>
		</g>
	</g>
	<g id="Group_19" transform="translate(20.788 24.566)">
		<g id="Group_18">
			<path id="Path_29" class="st0" d="M7.9,0.9C7.6,0.7,7.2,0.8,7,1.1C6.8,1.3,6.9,1.7,7.2,1.9c1.7,1.2,2.2,3.5,1,5.2s-3.5,2.2-5.2,1
				s-2.2-3.5-1-5.2c0.7-1,1.9-1.7,3.1-1.7c0.3,0,0.6-0.3,0.6-0.6S5.4,0,5,0C2.3,0,0,2.3,0,5s2.3,5,5,5s5-2.3,5-5
				C10.1,3.4,9.2,1.8,7.9,0.9L7.9,0.9z"/>
		</g>
	</g>
	<g id="Group_21" transform="translate(0)">
		<g id="Group_20">
			<path id="Path_30" class="st0" d="M33.1,27.5c-0.6-2.1-2.1-3.9-4.1-4.8V8.8c0-0.2-0.1-0.4-0.3-0.5L14.8,0.1
				c-0.2-0.1-0.4-0.1-0.6,0L0.3,8.3c0,0,0,0,0,0s0,0,0,0c-0.1,0-0.1,0.1-0.1,0.2c0,0,0,0,0,0l0,0C0.1,8.6,0,8.6,0,8.7c0,0,0,0,0,0.1
				c0,0,0,0,0,0.1v16.4c0,0.2,0.1,0.4,0.3,0.5l13.9,8.2c0,0,0,0,0.1,0c0,0,0,0,0.1,0c0.1,0.1,0.3,0.1,0.4,0c0,0,0,0,0.1,0
				c0,0,0,0,0,0l3.8-2.2c1.2,4,5.4,6.3,9.4,5.1C31.9,35.6,34.2,31.5,33.1,27.5L33.1,27.5z M14.5,1.4l3.3,1.9l-4.9,2.9
				c-0.3,0.2-0.4,0.6-0.2,0.9s0.6,0.4,0.9,0.2l0,0L19,4L22.3,6L9.7,13.4l-3.3-1.9l5.3-3.1c0.3-0.2,0.4-0.6,0.2-0.9S11.3,7.1,11,7.3
				l-5.9,3.5L1.9,8.8L14.5,1.4z M9,14.5v4.2l-3.3-1.9v-4.2L9,14.5z M18.5,27.7c-0.2,0.9-0.3,1.8-0.2,2.7l-3.2,1.9v-2
				c0-0.3-0.3-0.6-0.6-0.6c-0.3,0-0.6,0.3-0.6,0.6c0,0,0,0,0,0v2L1.3,24.8V9.9l3.3,1.9v5.3c0,0.2,0.1,0.4,0.3,0.5l4.5,2.7
				c0.3,0.2,0.7,0.1,0.9-0.2c0.1-0.1,0.1-0.2,0.1-0.3v-4.6l3.6,2.1v10.3c0,0.3,0.3,0.6,0.6,0.6c0.3,0,0.6-0.3,0.6-0.6c0,0,0,0,0,0
				V17.4l11.4-6.7c0.3-0.2,0.4-0.6,0.2-0.9c-0.2-0.3-0.5-0.4-0.8-0.2l-11.4,6.7l-3.6-2.1l12.6-7.5l4.2,2.5v13.1
				C23.7,21.2,19.6,23.6,18.5,27.7C18.5,27.7,18.5,27.7,18.5,27.7z M25.8,35.9c-3.5,0-6.3-2.8-6.3-6.3c0-3.5,2.8-6.3,6.3-6.3
				c3.5,0,6.3,2.8,6.3,6.3v0C32.1,33.1,29.3,35.9,25.8,35.9z"/>
		</g>
	</g>
	<g id="Group_23" transform="translate(23.314 27.724)">
		<g id="Group_22">
			<path id="Path_31" class="st0" d="M4.8,0.2C4.6-0.1,4.2-0.1,4,0.2L1.6,2.6L1.1,2.1c-0.2-0.2-0.6-0.2-0.9,0s-0.2,0.6,0,0.9
				l0.9,0.9c0.2,0.2,0.6,0.2,0.9,0l0,0l2.8-2.8C5.1,0.8,5.1,0.4,4.8,0.2z"/>
		</g>
	</g>
</g>
</svg>
