<?xml version="1.0" encoding="utf-8"?>
<!-- Generator: Adobe Illustrator 24.1.3, SVG Export Plug-In . SVG Version: 6.00 Build 0)  -->
<svg version="1.1" id="Layer_1" xmlns="http://www.w3.org/2000/svg" xmlns:xlink="http://www.w3.org/1999/xlink" x="0px" y="0px"
	 viewBox="0 0 49.3 21.3" style="enable-background:new 0 0 49.3 21.3;" xml:space="preserve">
<style type="text/css">
	.st0{fill:#FFFFFF;}
</style>
<g id="truck-2">
	<g id="Group_101">
		<g id="Group_100">
			<path id="Path_50" class="st0" d="M48.7,11.6L45,10l-1.6-3.7c-0.1-0.3-0.4-0.5-0.8-0.5h-5.7c-0.5,0-0.8,0.4-0.8,0.8l0,0v12.3
				c0,0.4,0.4,0.8,0.8,0.8h2.5V18h-1.6V7.4h4.4l1.4,3.6c0.1,0.2,0.3,0.4,0.5,0.5l3.6,1.4v5.2h-3.3v1.6h4.1c0.5,0,0.8-0.4,0.8-0.8
				l0,0v-6.6C49.3,12,49,11.7,48.7,11.6z"/>
		</g>
	</g>
	<g id="Group_103">
		<g id="Group_102">
			<path id="Path_51" class="st0" d="M41.9,14.8c-1.8,0-3.3,1.5-3.3,3.3c0,1.8,1.5,3.3,3.3,3.3c1.8,0,3.3-1.5,3.3-3.3l0,0l0,0
				C45.1,16.2,43.7,14.8,41.9,14.8z M41.9,19.7c-0.9,0-1.6-0.7-1.6-1.7s0.7-1.6,1.7-1.6c0.9,0,1.6,0.7,1.6,1.6l0,0
				C43.5,19,42.8,19.7,41.9,19.7L41.9,19.7z"/>
		</g>
	</g>
	<g id="Group_105">
		<g id="Group_104">
			<path id="Path_52" class="st0" d="M30.4,14.8c-1.8,0-3.3,1.5-3.3,3.3c0,1.8,1.5,3.3,3.3,3.3c1.8,0,3.3-1.5,3.3-3.3l0,0
				C33.6,16.2,32.2,14.8,30.4,14.8z M30.4,19.7c-0.9,0-1.7-0.7-1.7-1.6c0-0.9,0.7-1.7,1.6-1.7c0.9,0,1.7,0.7,1.7,1.6c0,0,0,0,0,0
				l0,0C32,19,31.3,19.7,30.4,19.7C30.4,19.7,30.4,19.7,30.4,19.7L30.4,19.7z"/>
		</g>
	</g>
	<g id="Group_107">
		<g id="Group_106">
			<path id="Path_53" class="st0" d="M4.9,14.8c-1.8,0-3.3,1.5-3.3,3.3c0,1.8,1.5,3.3,3.3,3.3s3.3-1.5,3.3-3.3c0,0,0,0,0,0l0,0
				C8.2,16.2,6.7,14.8,4.9,14.8z M4.9,19.7c-0.9,0-1.6-0.7-1.6-1.6s0.7-1.6,1.7-1.6s1.6,0.7,1.6,1.6l0,0l0,0
				C6.6,19,5.8,19.7,4.9,19.7z"/>
		</g>
	</g>
	<g id="Group_109">
		<g id="Group_108">
			<path id="Path_54" class="st0" d="M13.1,14.8c-1.8,0-3.3,1.5-3.3,3.3c0,1.8,1.5,3.3,3.3,3.3s3.3-1.5,3.3-3.3l0,0
				C16.4,16.2,14.9,14.8,13.1,14.8z M13.1,19.7c-0.9,0-1.7-0.7-1.7-1.6s0.7-1.7,1.6-1.7c0.9,0,1.7,0.7,1.7,1.6c0,0,0,0,0,0l0,0
				C14.8,19,14,19.7,13.1,19.7C13.1,19.7,13.1,19.7,13.1,19.7z"/>
		</g>
	</g>
	<g id="Group_111">
		<g id="Group_110">
			<path id="Path_55" class="st0" d="M33.7,0H0.8C0.4,0,0,0.4,0,0.8l0,0v14.8c0,0.5,0.4,0.8,0.8,0.8h32.8c0.5,0,0.8-0.4,0.8-0.8l0,0
				V0.8C34.5,0.4,34.1,0,33.7,0C33.7,0,33.7,0,33.7,0L33.7,0z M32.8,14.8H1.6V1.6h31.2L32.8,14.8L32.8,14.8z"/>
		</g>
	</g>
	<g id="Group_113">
		<g id="Group_112">
			<rect id="Rectangle_33" x="32.8" y="18.1" class="st0" width="4.1" height="1.6"/>
		</g>
	</g>
	<g id="Group_115">
		<g id="Group_114">
			<rect id="Rectangle_34" x="33.7" y="14.8" class="st0" width="3.3" height="1.6"/>
		</g>
	</g>
	<g id="Group_117">
		<g id="Group_116">
			<rect id="Rectangle_35" x="7.4" y="18.1" class="st0" width="3.3" height="1.6"/>
		</g>
	</g>
</g>
</svg>
