<?xml version="1.0" encoding="utf-8"?>
<!-- Generator: Adobe Illustrator 24.2.0, SVG Export Plug-In . SVG Version: 6.00 Build 0)  -->
<svg version="1.1" id="Layer_1" xmlns="http://www.w3.org/2000/svg" xmlns:xlink="http://www.w3.org/1999/xlink" x="0px" y="0px"
	 viewBox="0 0 164.6 71.7" style="enable-background:new 0 0 164.6 71.7;" xml:space="preserve">
<style type="text/css">
	.st0{fill:#676C6E;}
	.st1{fill:#C0DB37;}
</style>
<g id="surface1">
	<path id="Path_105" class="st0" d="M5.9,63.8c-0.3-0.2-0.7-0.3-1.1-0.3c-0.5,0-0.9,0.4-1,0.9v0.1c0,0.4,0.2,0.7,1.1,1.2
		s1.4,1.2,1.4,1.9c0.1,1-0.7,1.8-1.7,1.9H4.3c-0.5,0-0.9-0.1-1.4-0.3v-0.9c0.4,0.2,0.8,0.4,1.3,0.4c0.6,0.1,1.1-0.4,1.2-1
		c0,0,0,0,0,0c0,0,0,0,0-0.1c0-0.5-0.1-0.8-1-1.3c-1.2-0.7-1.5-1.1-1.5-2c0-0.9,0.7-1.6,1.6-1.6c0,0,0,0,0,0h0.2
		c0.4,0,0.8,0.1,1.2,0.2V63.8"/>
	<path id="Path_106" class="st0" d="M15.1,68.8c0.9,0,1.6-0.7,1.6-2.7c0-1.3-0.4-2.6-1.5-2.6c-0.9,0-1.6,0.7-1.6,2.7
		C13.6,67.6,14,68.8,15.1,68.8z M15.2,62.8c1.5,0,2.4,1.2,2.4,3.3c0,2.3-0.9,3.4-2.5,3.4s-2.4-1.2-2.4-3.3
		C12.8,64,13.7,62.8,15.2,62.8"/>
	<path id="Path_107" class="st0" d="M24.5,62.9h0.8v5.9h2.2v0.7h-3L24.5,62.9"/>
	<path id="Path_108" class="st0" d="M38.1,67c0,0.5-0.1,1-0.3,1.5c-0.6,1-1.9,1.3-2.9,0.7c-0.3-0.2-0.5-0.4-0.7-0.7
		c-0.2-0.5-0.3-1-0.3-1.5v-4.1h0.8v4.3c0,1,0.5,1.7,1.2,1.7s1.2-0.7,1.2-1.7v-4.3h0.8L38.1,67"/>
	<path id="Path_109" class="st0" d="M46.1,63.6h-1.5v-0.7h3.8v0.7H47v5.9h-0.8L46.1,63.6"/>
	<path id="Path_110" class="st0" d="M55,69.5h0.8v-6.6H55V69.5z"/>
	<path id="Path_111" class="st0" d="M65.1,68.8c0.9,0,1.6-0.7,1.6-2.7c0-1.3-0.4-2.6-1.5-2.6c-0.9,0-1.6,0.7-1.6,2.7
		C63.5,67.6,64,68.8,65.1,68.8z M65.1,62.8c1.5,0,2.4,1.2,2.4,3.3c0,2.3-0.9,3.4-2.5,3.4s-2.4-1.2-2.4-3.3
		C62.7,64,63.6,62.8,65.1,62.8"/>
	<path id="Path_112" class="st0" d="M74.4,62.9h1l2.5,5.4l0,0v-5.4h0.8v6.6h-1l-2.5-5.4l0,0v5.4h-0.8L74.4,62.9"/>
	<path id="Path_113" class="st0" d="M88.5,63.8c-0.3-0.2-0.7-0.3-1.1-0.3c-0.5,0-0.9,0.4-1,0.9v0.1c0,0.4,0.2,0.7,1.1,1.2
		s1.4,1.2,1.4,1.9c0.1,1-0.7,1.8-1.7,1.9h-0.3c-0.5,0-0.9-0.1-1.4-0.3v-0.9c0.4,0.2,0.8,0.4,1.2,0.4c0.6,0.1,1.1-0.4,1.2-1
		c0,0,0,0,0,0c0,0,0,0,0-0.1c0-0.5-0.1-0.8-1-1.3c-1.2-0.7-1.4-1.1-1.4-2c0-0.9,0.7-1.6,1.6-1.6c0,0,0,0,0,0c0.1,0,0.1,0,0.2,0
		c0.4,0,0.8,0.1,1.2,0.2L88.5,63.8"/>
	<path id="Path_114" class="st0" d="M103.5,69.5h0.8v-6.6h-0.8V69.5z"/>
	<path id="Path_115" class="st0" d="M111.5,62.9h1l2.5,5.4l0,0v-5.4h0.8v6.6h-1l-2.5-5.4l0,0v5.4h-0.8L111.5,62.9"/>
	<path id="Path_116" class="st0" d="M126.8,69.3c-0.4,0.1-0.8,0.2-1.2,0.2c-2.1,0-3-1.6-3-3.4c0-2,1.2-3.3,2.9-3.3
		c0.4,0,0.9,0.1,1.2,0.2v0.8c-0.4-0.2-0.8-0.3-1.2-0.3c-1.2,0.1-2.1,1.1-2.1,2.3c0,0.1,0,0.1,0,0.2c0,1.7,0.7,2.8,2.1,2.8
		c0.4,0,0.8-0.1,1.2-0.3L126.8,69.3"/>
	<path id="Path_117" class="st0" d="M8.9,11v2.3h5v6.1h-5V52H2.5V19.4H0v-6.1h2.5v-2.7C2.5,4.1,6-0.6,14.3,0.1v6.2
		C10.4,6,8.9,7.5,8.9,11"/>
	<path id="Path_118" class="st0" d="M29.9,52v-2.4c-0.7,1.7-3.2,3-5.4,3c-6.1,0-8.6-3.8-8.6-10.5V13.3h6.4v28.4
		c0,3.5,1.4,5.1,3.7,5.1s3.7-1.7,3.7-5.1V13.3H36V52H29.9"/>
	<path id="Path_119" class="st0" d="M39,52v-5.3l10.7-27.5H39.6v-5.8h16.6v5.8L45.5,46.2h11.4V52H39"/>
	<path id="Path_120" class="st0" d="M73.4,23.6c0-3.5-1.5-5.1-3.9-5.1s-3.9,1.6-3.9,5.1v5.7h7.8V23.6z M69.6,52.6
		c-6.5,0-10.3-3.8-10.3-10.5V23.2c0-6.7,3.8-10.5,10.3-10.5s10.3,3.8,10.3,10.5v11.2H65.6v7.3c0,3.5,1.6,5.1,4,5.1s3.9-1.7,3.9-5.1
		v-2.2h6.4v2.5C79.9,48.8,76.1,52.6,69.6,52.6"/>
	<path id="Path_121" class="st0" d="M106.5,52V32.2h-9.4V52h-2.3V11.6h2.3V30h9.4V11.6h2.3V52H106.5"/>
	<path id="Path_122" class="st0" d="M125.7,20c0-4.1-1.7-6.2-5.1-6.2h-3.3V31h3.3c3.5,0,5.1-2.5,5.1-6.2V20z M125.7,52V39.3
		c0-3.7-1.6-6.2-5.1-6.2h-3.3V52H115V11.6h5.8c4.9,0,7.2,2.8,7.2,8.2v5.1c0,3.8-1.7,6.2-3.9,7.1c2.2,0.9,3.9,3.1,3.9,6.9V52H125.7"
		/>
	<path id="Path_123" class="st1" d="M153.7,42.5c4.3,0,7.8-3.5,7.8-7.8c0-2-0.7-3.9-2.1-5.3l-0.2-0.2l0,0c-0.1-0.1-0.2-0.2-0.4-0.4
		l-0.4-0.3c-7.1-5.7-4.7-9.5,0.5-14.6l0.2-0.2l0.1-0.1c0.4-0.3,0.7-0.8,0.9-1.2c2.2-3.5,1.1-8.1-2.4-10.3c-3.5-2.2-8.1-1.1-10.3,2.4
		c-1.5,2.4-1.5,5.5,0,7.9l0.1,0.2l0.1,0.2l0.1,0.1c0.4,0.5,0.8,0.9,1.2,1.3c4.2,4.2,6.3,8.6-0.1,14.4c-0.2,0.1-0.3,0.3-0.5,0.4
		l-0.1,0.1l0,0c-3.1,3-3.1,7.9-0.1,11C149.6,41.6,151.6,42.5,153.7,42.5L153.7,42.5z M153.7,49.9c-6,0-10.9,4.9-10.9,10.9
		s4.9,10.9,10.9,10.9c6,0,10.9-4.9,10.9-10.9c0,0,0,0,0,0l0,0C164.6,54.8,159.7,49.9,153.7,49.9"/>
</g>
</svg>
