<?xml version="1.0" encoding="utf-8"?>
<!-- Generator: Adobe Illustrator 24.1.3, SVG Export Plug-In . SVG Version: 6.00 Build 0)  -->
<svg version="1.1" id="Layer_1" xmlns="http://www.w3.org/2000/svg" xmlns:xlink="http://www.w3.org/1999/xlink" x="0px" y="0px"
	 viewBox="0 0 49.5 55.2" style="enable-background:new 0 0 49.5 55.2;" xml:space="preserve">
<style type="text/css">
	.st0{fill:#FFFFFF;}
</style>
<path id="Path_42" class="st0" d="M49.1,40.8c-0.9-3.1-3.1-5.7-6.1-7.1V13.1c0-0.3-0.2-0.6-0.5-0.8L22,0.1c-0.3-0.2-0.7-0.2-1,0
	L0.5,12.3H0.4H0.3c-0.1,0.1-0.2,0.1-0.2,0.2l0,0l0,0c-0.1,0.1-0.1,0.2-0.1,0.3c0,0.1,0,0.1,0,0.2c0,0,0,0.1,0,0.1v24.3
	c0,0.3,0.2,0.6,0.5,0.8L21,50.3h0.1h0.1c0.2,0.1,0.4,0.1,0.6,0h0.1h0.1l5.6-3.3c1.8,5.9,8,9.3,14,7.5C47.3,52.8,50.7,46.7,49.1,40.8
	z M21.5,2l4.9,2.9l-7.2,4.3c-0.4,0.3-0.6,0.8-0.3,1.3c0.3,0.4,0.8,0.6,1.3,0.3l0,0L28.2,6l4.9,2.9L14.3,19.9L9.5,17l7.8-4.6
	c0.4-0.3,0.6-0.9,0.3-1.3c-0.3-0.4-0.9-0.6-1.3-0.3L7.6,16l-4.9-2.9L21.5,2z M13.4,21.5v6.2l-4.8-2.9v-6.2L13.4,21.5z M27.5,41
	c-0.3,1.3-0.4,2.7-0.3,4.1l-4.7,2.8v-3c0-0.5-0.5-0.9-1-0.9c-0.4,0-0.8,0.4-0.9,0.8v3.1l-18.7-11V14.7l4.8,2.9v7.9
	c0,0.3,0.2,0.6,0.5,0.8l6.7,4c0.4,0.3,1,0.1,1.3-0.3c0.1-0.1,0.1-0.3,0.1-0.5v-6.8l5.3,3.1v15.3c0,0.5,0.4,0.9,0.9,0.9
	s0.9-0.4,0.9-0.9V25.8l16.9-10c0.4-0.3,0.5-0.9,0.2-1.3c-0.3-0.4-0.7-0.5-1.1-0.3l-16.9,10L16.2,21L34.9,9.9l6.2,3.7v19.5
	C35.2,31.5,29.1,35,27.5,41L27.5,41z M38.3,53.3c-5.2,0-9.4-4.2-9.4-9.3c0-5.2,4.2-9.4,9.3-9.4s9.4,4.2,9.4,9.3c0,0,0,0,0,0l0,0
	C47.7,49.1,43.5,53.3,38.3,53.3z"/>
</svg>
