<?xml version="1.0" encoding="utf-8"?>
<!-- Generator: Adobe Illustrator 24.1.3, SVG Export Plug-In . SVG Version: 6.00 Build 0)  -->
<svg version="1.1" id="Layer_1" xmlns="http://www.w3.org/2000/svg" xmlns:xlink="http://www.w3.org/1999/xlink" x="0px" y="0px"
	 viewBox="0 0 48.7 48.7" style="enable-background:new 0 0 48.7 48.7;" xml:space="preserve">
<path style="fill:#FFFFFF;" d="M48.4,20.5c-0.2-0.2-0.5-0.3-0.9-0.3l-8.2,1.6c-0.5,0.1-0.8,0.6-0.8,1.1c0,0.2,0.1,0.3,0.3,0.5
	l1.1,1.1l-4.3,4.4l-3.4-3.4c-0.4-0.3-1-0.3-1.3,0l0,0l-4.2,4.1l1.5-5.6c0.6-2.2-0.6-4.6-2.7-5.4l1.2-3.5c0.3,0,0.7,0,1,0
	c2.8,0,5.4-1,7.5-2.7l0.2-0.2c1-1,1-2.7,0-3.7c-0.9-0.8-2.2-1-3.2-0.4l-0.1,0.1L32,8.5c-0.4,0.3-0.8,0.6-1.2,0.8
	c-1.5,0.7-3.3,0.4-4.5-0.8c2.3-0.7,3.6-3.1,2.9-5.4S26-0.5,23.7,0.2s-3.6,3.1-2.9,5.4c0.1,0.5,0.4,0.9,0.6,1.3
	c-1,0.2-1.9,0.7-2.6,1.4l-0.1,0.1c-1.7,2.1-3.9,3.5-6.5,4.3c-0.7,0.2-1.2,0.7-1.5,1.3l-1.9-2c-0.9-0.9-2.2-0.9-3.1,0l-2.5,2.6l0,0
	l-2.6,2.6c-0.9,0.9-0.9,2.2,0,3.1l0,0l7,7c0.9,0.9,2.2,0.9,3.1,0l0,0l2.6-2.6l-1.2,3.3c-0.2,0.5,0.1,1,0.6,1.2
	c0.5,0.2,1-0.1,1.2-0.5l0,0l3.1-8.2h7c1.4,0,2.6,1.2,2.5,2.6c0,0.2,0,0.5-0.1,0.7l-2.2,7.8c-0.1,0.4-0.6,0.7-1,0.6
	c-0.4-0.1-0.6-0.4-0.6-0.8c0,0,0-0.1,0-0.1l1.2-7.2c0.1-0.5-0.3-1-0.8-1.1H23h-2.3c-0.4,0-0.7,0.2-0.9,0.5c0,0.1-5.6,11-7.4,14.7
	c-0.2,0.4-0.6,0.6-1,0.5h-0.1c-0.5-0.1-0.8-0.5-0.8-1c0-0.1,0-0.1,0.1-0.2l0.6-1.5c0.2-0.5,0-1-0.5-1.2c-0.5-0.2-1,0-1.2,0.5l0,0
	l-0.6,1.5C8.3,38,9,39.6,10.5,40.2c0,0,0,0,0,0c0.2,0.1,0.4,0.1,0.6,0.2h0.1c1.2,0.2,2.4-0.4,3-1.5c1.6-3.2,6-11.9,7.2-14.2h0.6
	l-1,6.1c-0.2,1.3,0.6,2.6,1.9,3L12.1,44.4c-0.3,0.4-0.3,1,0,1.3l0,0l2.7,2.7c0.4,0.3,1,0.3,1.3,0l0,0l5.2-5.2
	c0.3-0.5,0.1-1.1-0.4-1.3c-0.3-0.1-0.6-0.1-0.9,0l-4.6,4.6L14.1,45l17.4-17.4L35,31c0.4,0.3,1,0.3,1.3,0l0,0l5.7-5.7
	c0.3-0.4,0.3-1,0-1.4l0,0l-0.5-0.5l5.1-1l-1,5.1l-0.8-0.8c-0.4-0.3-1-0.3-1.3,0l0,0l-7.8,7.7L32.2,31c-0.4-0.3-1-0.3-1.3,0l0,0
	l-5.4,5.4c-0.3,0.4-0.3,1,0,1.3c0.4,0.3,1,0.3,1.3,0l4.8-4.8l3.4,3.4c0.4,0.3,1,0.3,1.3,0l0,0l7.7-7.8l1.4,1.4c0.4,0.3,1,0.3,1.3,0
	c0.1-0.1,0.2-0.3,0.3-0.5l1.7-8.2C48.7,21,48.6,20.7,48.4,20.5z M25,1.9c1.3,0,2.4,1.1,2.4,2.4S26.3,6.8,25,6.8s-2.4-1.1-2.4-2.4
	l0,0C22.6,3,23.7,1.9,25,1.9L25,1.9z M15.6,18.8l-1.2-1.1c0.6-0.2,1.1-0.4,1.6-0.6L15.6,18.8z M12.4,15.5c-0.1-0.4,0.1-0.8,0.5-0.9
	c1.5-0.4,3-1.1,4.3-2l-0.5,2.1c-1.1,0.6-2.2,1.1-3.4,1.4h-0.1c-0.2,0-0.3,0-0.5-0.1l-0.3-0.3L12.4,15.5L12.4,15.5z M7.1,13.4
	c0.1-0.1,0.3-0.1,0.4,0l3.5,3.5c0.2,0.2,0.3,0.4,0.6,0.6l3,3c0.1,0.1,0.1,0.3,0,0.4c0,0,0,0,0,0l-1.9,1.9l-2.1-2.1l0.4-0.4
	c0.3-0.4,0.3-1,0-1.3l0,0l-2.2-2.1c-0.4-0.4-1-0.4-1.3,0c0,0,0,0,0,0l0,0l-0.4,0.4l-1.9-1.9L7.1,13.4z M8.4,20.1
	c-0.1,0.1-0.4,0.1-0.5,0l0,0l-0.3-0.3c-0.1-0.1-0.1-0.4,0-0.5l0.6-0.5l0.8,0.8L8.4,20.1z M9.4,25.9C9.3,26,9.1,26,9,25.9
	c0,0,0,0,0,0l-7-7c-0.1-0.1-0.1-0.3,0-0.4c0,0,0,0,0,0l1.9-1.9l1.9,2c-0.4,0.9-0.2,1.9,0.4,2.6l0.3,0.3l0,0c0.7,0.7,1.7,0.9,2.6,0.4
	l2.2,2.1L9.4,25.9z M23,18.5h-5.4l1.9-7.5c0.3-1.4,1.6-2.3,3-2.3c0.9,0,1.7,0.4,2.2,1c1.8,1.9,4.6,2.4,6.9,1.3
	c0.6-0.3,1.1-0.6,1.6-1l0.3-0.2c0.3-0.2,0.7-0.2,1,0.1l0,0c0.2,0.3,0.1,0.8-0.2,1l-0.2,0.2c-2.2,1.8-5,2.6-7.8,2.2
	c-0.4,0-0.8,0.2-1,0.6l-1.6,4.6H23z"/>
<path style="fill:#FFFFFF;" d="M23.5,37.7c-0.9,0-1.7,0.7-1.7,1.7s0.7,1.7,1.7,1.7s1.7-0.7,1.7-1.7l0,0c0-0.4-0.2-0.9-0.5-1.2
	C24.4,37.9,23.9,37.7,23.5,37.7z"/>
<path style="fill:#FFFFFF;" d="M12.1,33.2c0.9,0,1.7-0.7,1.7-1.7c0-0.9-0.7-1.7-1.7-1.7s-1.7,0.7-1.7,1.7c0,0,0,0,0,0
	c0,0.4,0.2,0.9,0.5,1.2C11.2,33,11.6,33.2,12.1,33.2z"/>
</svg>
